<svg width="133" height="185" viewBox="0 0 133 185" fill="none" xmlns="http://www.w3.org/2000/svg">
<g clip-path="url(#clip0_406_2)">
<path d="M92.5601 150.09C94.4401 148.94 95.9801 148.02 96.7901 146.04C97.7769 143.512 99.0627 141.112 100.62 138.89C101.832 137.096 102.471 134.975 102.45 132.81C102.69 128.02 101.78 123.35 101.12 118.65C100.5 114.23 99.7601 109.83 99.2801 105.38C99.0701 103.44 98.6701 101.52 98.5401 99.5701C98.5475 99.4272 98.515 99.2851 98.4461 99.1597C98.3772 99.0343 98.2747 98.9305 98.1502 98.8601C97.4502 101.25 97.2802 103.72 96.7602 106.12C95.5502 111.66 94.4901 117.23 92.9701 122.69C92.4901 124.39 91.9702 126.17 90.5102 127.36C90.3302 127.5 90.1002 127.72 89.9002 127.71C88.4702 127.6 87.9801 128.71 87.1801 129.57C84.1801 132.78 80.0001 132.93 76.4601 130.96C72.9201 128.99 69.5501 126.69 65.8601 124.96C64.8258 124.43 64.0037 123.562 63.5301 122.5C63.4562 122.391 63.4065 122.267 63.3842 122.137C63.3618 122.007 63.3674 121.874 63.4005 121.746C63.4336 121.618 63.4935 121.499 63.5762 121.396C63.6589 121.294 63.7625 121.21 63.8802 121.15C63.9943 121.063 64.1257 121.002 64.2657 120.97C64.4056 120.939 64.5506 120.938 64.6909 120.967C64.8313 120.996 64.9638 121.056 65.0793 121.141C65.1947 121.226 65.2905 121.335 65.3601 121.46C66.0607 122.481 67.0394 123.279 68.1801 123.76C71.4201 125.56 74.5501 127.56 77.8601 129.22C81.3301 130.96 84.4301 130.37 86.4701 126.67C86.8001 126.08 86.9602 125.39 87.2702 124.8C87.7102 123.96 87.3901 123.52 86.6001 123.26C82.1601 121.8 77.7401 120.26 72.9701 120.4C71.9701 120.4 70.9701 120.56 69.9701 120.69C69.7094 120.683 69.4553 120.773 69.2575 120.943C69.0597 121.114 68.9324 121.351 68.9002 121.61C68.8123 121.893 68.6281 122.137 68.3797 122.298C68.1312 122.46 67.8341 122.53 67.5397 122.495C67.2453 122.461 66.9722 122.324 66.7677 122.11C66.5633 121.895 66.4402 121.616 66.4201 121.32C66.315 119.572 66.315 117.819 66.4201 116.07C66.7601 112.87 66.5601 109.68 66.5901 106.49C66.573 102.652 67.7547 98.9042 69.9701 95.77C72.6486 92.0504 75.0229 88.1211 77.0701 84.02C77.9066 82.6069 78.8634 81.2686 79.9301 80.02C80.0141 79.8789 80.1281 79.7579 80.2641 79.6658C80.4 79.5736 80.5546 79.5126 80.7168 79.4868C80.879 79.4611 81.045 79.4712 81.2028 79.5167C81.3606 79.5622 81.5066 79.6418 81.6302 79.75C81.7684 79.8411 81.8817 79.9651 81.9602 80.1109C82.0387 80.2566 82.0799 80.4196 82.0799 80.5851C82.0799 80.7506 82.0387 80.9135 81.9602 81.0592C81.8817 81.205 81.7684 81.329 81.6302 81.4201C79.4102 83.7701 78.1902 86.7601 76.5202 89.4201C74.8502 92.0801 73.4102 94.6101 71.6502 97.0601C69.7696 99.7104 68.7405 102.871 68.7001 106.12C68.6101 108.88 68.7001 111.64 68.7001 114.4C68.7001 115.56 68.3601 116.69 68.4601 117.86C68.4601 118.45 68.5801 118.73 69.3101 118.55C75.0701 117.19 80.4401 119 85.8401 120.63C87.0801 121 88.1401 121.87 89.5401 121.87C90.3301 121.87 90.2801 122.69 90.5401 123.31C91.3101 120.14 92.0501 116.96 92.8601 113.79C93.6301 110.79 94.0601 107.7 94.8001 104.67C95.4026 101.788 95.8598 98.8779 96.1701 95.9501C96.3501 94.6501 96.3201 93.31 96.5601 92.02C96.6513 91.4885 96.6075 90.9426 96.4328 90.4324C96.258 89.9222 95.958 89.4642 95.5601 89.1001C95.0301 88.5201 94.1602 88.1001 94.7702 87.1001C95.3802 86.1001 96.0902 86.7301 96.7702 87.1001C96.9065 86.6469 96.9474 86.1704 96.8907 85.7006C96.8339 85.2307 96.6805 84.7777 96.4401 84.37C95.5401 82.89 94.8801 81.2901 93.8301 79.8501C93.037 78.5508 92.6311 77.052 92.6601 75.53C92.5855 73.2657 92.2499 71.0175 91.6601 68.8301C90.5903 64.5781 89.769 60.2675 89.2001 55.9201C88.9101 53.9201 88.5201 51.83 88.2001 49.78C87.7201 46.39 87.4602 42.98 86.7502 39.62C86.0002 35.99 85.6901 32.2901 84.8401 28.6801C84.7946 28.2839 84.6651 27.9021 84.4601 27.5601C84.1861 27.325 84.0082 26.9974 83.9602 26.6397C83.9123 26.2819 83.9977 25.9189 84.2001 25.62C84.5101 25.11 84.2001 24.6201 84.0601 24.1101C83.0199 20.3119 81.6514 16.6112 79.9701 13.0501C78.3816 9.46629 75.7997 6.41248 72.5301 4.25002C71.641 3.66351 70.595 3.36019 69.5301 3.38002C69.1901 3.38002 68.8402 3.38002 68.6502 3.13002C67.2502 1.25002 65.4401 1.8801 63.7901 2.4601C60.8735 3.42233 58.0624 4.6788 55.4002 6.2101C52.3789 8.15084 49.7107 10.5925 47.5102 13.4301C46.6727 14.251 45.9706 15.1995 45.4301 16.2401C46.4169 16.1787 47.4004 16.4048 48.2613 16.8911C49.1221 17.3775 49.8234 18.1031 50.2801 18.9801C50.7869 19.8988 51.0529 20.9309 51.0529 21.9801C51.0529 23.0293 50.7869 24.0615 50.2801 24.9801C50.1845 25.194 50.0468 25.3863 49.8751 25.5457C49.7035 25.705 49.5014 25.828 49.281 25.9074C49.0607 25.9867 48.8265 26.0209 48.5927 26.0076C48.3588 25.9943 48.13 25.9339 47.9201 25.8301C46.3581 25.0995 44.6429 24.7564 42.9201 24.8301C42.5801 24.8301 42.2701 24.83 42.2801 25.28C42.2801 26.35 42.0701 27.4501 42.7301 28.4301C42.8515 28.5903 42.9275 28.7804 42.9501 28.9801C42.8501 31.5201 44.4801 33.3 45.8401 35.12C46.6001 36.12 46.7801 37.4 47.5601 38.37C47.8801 38.78 48.0901 39.26 48.6801 39.37C51.6009 40.0407 54.6174 40.1898 57.5901 39.8101C58.2701 39.6901 58.5902 39.07 59.2602 38.91C60.6667 38.4743 62.1204 38.209 63.5901 38.12C65.8901 38.12 67.2801 36.7001 68.1601 34.6701C68.7501 33.2701 69.4801 31.93 70.0401 30.53C70.4301 29.53 71.0401 28.5301 70.3501 27.4501C70.2774 27.3266 70.2342 27.1881 70.2239 27.0452C70.2136 26.9023 70.2365 26.759 70.2907 26.6264C70.3449 26.4937 70.429 26.3754 70.5364 26.2807C70.6439 26.1859 70.7717 26.1173 70.9101 26.0801C71.0609 25.9971 71.2278 25.9473 71.3994 25.934C71.5711 25.9207 71.7437 25.9441 71.9055 26.0028C72.0674 26.0615 72.2148 26.1541 72.338 26.2743C72.4613 26.3945 72.5575 26.5397 72.6201 26.7001C72.845 27.1965 72.9612 27.7351 72.9612 28.28C72.9612 28.825 72.845 29.3637 72.6201 29.8601C71.6201 32.2901 70.5602 34.6901 69.3902 37.0501C68.2202 39.4101 65.9302 40.14 63.5202 40.37C62.0845 40.3754 60.6748 40.7546 59.4301 41.4701C58.7029 41.9047 57.867 42.1233 57.0202 42.1001C56.9002 42.0835 56.7779 42.0957 56.6636 42.1359C56.5493 42.1761 56.4464 42.243 56.3632 42.3311C56.28 42.4191 56.2192 42.5257 56.1856 42.6421C56.152 42.7585 56.1466 42.8812 56.1701 43C56.3201 46.8 55.3701 50.5301 55.4901 54.3301C55.5054 54.6131 55.4751 54.8967 55.4002 55.1701C54.2936 59.2679 53.4353 63.4288 52.8301 67.63C52.7422 68.7917 52.3413 69.908 51.6701 70.8601C51.5001 71.0701 51.3201 71.4201 51.1101 71.4501C49.7201 71.6401 50.3601 72.33 50.6601 73C52.0301 76.14 53.6601 79.18 54.8001 82.41C55.1201 83.3 54.8001 84.25 54.0801 84.41C53.1401 84.59 52.8901 84.0001 52.6601 83.2101C52.3093 81.9409 51.8613 80.7005 51.3201 79.5C49.4001 75.33 47.5401 71.1401 45.4401 67.0601C43.3381 63.1293 40.9798 59.3411 38.3802 55.7201C35.8842 52.3018 32.8989 49.2693 29.5202 46.7201C28.3412 45.8283 27.0501 45.0953 25.6801 44.5401C24.881 44.296 24.0202 44.3529 23.2602 44.7001C22.8002 44.8201 22.9801 45.1201 23.0001 45.3601C23.3701 49.2901 22.0001 52.9101 21.0001 56.6101C20.4818 58.572 19.8132 60.491 19.0001 62.3501C18.2026 64.2763 16.9307 65.9694 15.3029 67.272C13.6751 68.5746 11.7443 69.4442 9.69009 69.8001C11.7943 71.6296 14.0157 73.32 16.3401 74.8601C21.7801 78.6901 27.2202 82.5301 32.5202 86.5701C33.0702 86.9901 33.5901 87.5701 34.2901 86.6901C34.4469 86.5582 34.6452 86.4859 34.8501 86.4859C35.055 86.4859 35.2533 86.5582 35.4101 86.6901C35.6144 86.7862 35.7747 86.9563 35.8583 87.1662C35.9419 87.376 35.9425 87.6098 35.8601 87.8201C35.4801 88.6501 35.9101 88.97 36.5601 89.25C37.2042 89.5782 37.8729 89.8558 38.5601 90.0801C39.2501 90.2701 39.7101 90.73 39.4401 91.51C39.1701 92.29 38.5802 92.3801 37.8802 92.1101C37.3425 91.9559 36.8229 91.7447 36.3301 91.4801C35.3301 90.7601 34.9701 91.2601 34.7901 92.2301C33.9095 96.3658 33.5468 100.595 33.7101 104.82C33.9501 108.82 34.5802 112.74 34.8902 116.72C35.2708 122.49 36.1406 128.217 37.4901 133.84C37.8101 135.11 38.3401 136.33 38.7501 137.57C38.9401 138.17 39.2801 138.16 39.7501 137.9C40.4001 137.55 41.0202 137.55 41.3802 138.29C41.7402 139.03 41.2101 139.55 40.5601 139.85C37.7701 141.15 34.7701 141.85 31.9101 142.97C27.4201 144.68 22.6801 145.48 18.0901 146.8C14.4089 147.879 10.9999 149.73 8.09012 152.23C9.95732 153.091 11.7051 154.19 13.2901 155.5C15.6209 157.629 17.4397 160.258 18.6101 163.19C19.3269 164.663 19.8254 166.233 20.0901 167.85C20.1606 168.159 20.1975 168.474 20.2001 168.79C20.2068 168.941 20.1837 169.092 20.132 169.234C20.0803 169.376 20.0011 169.507 19.899 169.618C19.7968 169.73 19.6736 169.82 19.5365 169.884C19.3994 169.947 19.2512 169.984 19.1001 169.99C18.4001 169.99 18.0201 169.57 17.9401 168.88C17.4497 164.976 15.7705 161.317 13.1302 158.4C11.5262 156.443 9.39035 154.991 6.98013 154.22C6.78293 154.135 6.56512 154.11 6.35367 154.147C6.14221 154.184 5.94628 154.283 5.79007 154.43C4.90007 155.21 4.95006 156.6 3.91006 157.29C3.83006 157.35 4.03012 157.98 4.22012 158.29C6.38528 161.882 9.20379 165.036 12.5301 167.59C15.3462 169.487 18.4078 170.99 21.6302 172.06C21.9802 172.19 22.4101 172.35 22.3001 171.59C22.1901 170.83 22.8601 170.59 23.3701 170.31C24.8763 169.581 26.4462 168.992 28.0601 168.55C31.4165 167.148 34.5339 165.232 37.3001 162.87C40.5334 160.337 43.7034 157.733 46.8101 155.06C48.2451 153.975 49.4803 152.649 50.4601 151.14C50.5148 150.996 50.6023 150.866 50.7156 150.761C50.8289 150.656 50.9649 150.578 51.1132 150.535C51.2614 150.491 51.4178 150.482 51.57 150.509C51.7221 150.536 51.8659 150.598 51.9901 150.69C52.6001 151.02 52.6301 151.54 52.3601 152.13C51.3786 153.893 50.0112 155.411 48.3601 156.57C44.7301 159.67 41.0001 162.68 37.2301 165.57C33.8886 168.3 30.0221 170.315 25.8701 171.49C25.6757 171.535 25.485 171.595 25.3001 171.67L23.6801 172.48C24.2081 172.743 24.8017 172.844 25.3869 172.771C25.972 172.698 26.5227 172.454 26.9701 172.07C27.5501 171.63 28.1701 171.44 28.6201 172.14C29.0701 172.84 28.7602 173.44 28.1302 173.9C27.5107 174.343 26.8049 174.65 26.0589 174.801C25.3128 174.953 24.5431 174.946 23.8001 174.78C20.6579 174.066 17.6293 172.922 14.8001 171.38C10.2048 169.088 6.33752 165.564 3.63015 161.2C2.69286 159.91 1.85702 158.549 1.13015 157.13C0.830155 156.47 0.350174 155.76 0.900174 155C1.45017 154.24 2.12014 154.77 2.74014 154.83C2.74014 154.68 2.82014 154.56 2.74014 154.53C2.30014 154.1 1.66008 153.78 1.93008 152.97C2.05746 152.628 2.29984 152.342 2.61551 152.159C2.93118 151.977 3.30044 151.91 3.66006 151.97C4.13027 151.961 4.59406 151.859 5.02481 151.671C5.45555 151.482 5.84477 151.21 6.17007 150.87C9.48107 148.038 13.3519 145.936 17.5301 144.7C23.3401 143.13 29.2202 141.78 34.8802 139.7C36.8802 138.94 36.8802 138.91 36.1402 136.88C35.2173 134.373 34.5474 131.78 34.1402 129.14C33.3902 124.69 33.0701 120.14 32.5701 115.72C31.8521 110.669 31.428 105.58 31.3001 100.48C31.4334 97.6103 31.8453 94.7602 32.5301 91.9701C32.9701 89.7801 33.1001 89.7801 31.3201 88.4901C24.9801 83.9101 18.6601 79.31 12.3201 74.78C10.1401 73.24 8.19017 71.41 5.90017 70.03C5.71018 69.9506 5.55403 69.807 5.45901 69.6243C5.364 69.4416 5.33611 69.2312 5.38015 69.03C5.67015 68.03 5.20016 67.2501 5.01016 66.3601C4.45016 63.7501 5.58013 61.5201 6.73013 59.3601C8.26297 56.7942 9.99147 54.3502 11.9002 52.0501C12.0299 51.8507 12.1771 51.6633 12.3401 51.4901C12.8401 51.0401 13.3402 50.6601 14.0202 51.2401C14.131 51.344 14.2193 51.4693 14.2797 51.6087C14.3401 51.748 14.3711 51.8982 14.3711 52.0501C14.3711 52.2019 14.3401 52.3521 14.2797 52.4915C14.2193 52.6308 14.131 52.7563 14.0202 52.8601C13.4802 53.6001 12.9401 54.3401 12.3501 55.0501C10.1066 57.5403 8.37076 60.4447 7.24014 63.6001C7.01381 64.3625 6.96928 65.1674 7.11014 65.9501C7.14384 66.2498 7.24486 66.5379 7.40567 66.793C7.56648 67.0481 7.78289 67.2636 8.03872 67.4232C8.29456 67.5829 8.58326 67.6826 8.88308 67.715C9.18291 67.7473 9.48616 67.7115 9.77017 67.6101C11.4939 67.2277 13.0924 66.4142 14.4163 65.246C15.7402 64.0777 16.7461 62.5928 17.3401 60.9301C18.8001 57.4801 19.5301 53.8401 20.5601 50.2901C20.8711 48.9809 20.9624 47.6291 20.8301 46.2901C20.7001 46.0501 20.5601 46.1601 20.4101 46.2101C19.6601 46.5101 19.0501 46.3701 18.7801 45.5501C18.7391 45.3544 18.7372 45.1525 18.7743 44.9561C18.8115 44.7596 18.887 44.5725 18.9966 44.4053C19.1062 44.2381 19.2478 44.0941 19.4131 43.9817C19.5784 43.8693 19.7643 43.7905 19.9601 43.75C20.7131 43.6225 21.487 43.7492 22.1601 44.1101C22.6701 42.4801 23.7802 41.89 25.6402 42.4C27.9651 43.1317 30.1181 44.3256 31.9701 45.91C34.7746 48.0361 37.2716 50.5399 39.3902 53.3501C43.172 58.4944 46.4694 63.9778 49.2401 69.7301C49.3301 69.9101 49.4401 70.08 49.5501 70.28C50.353 69.2201 50.826 67.9471 50.9101 66.62C50.9741 65.4636 51.1756 64.3189 51.5102 63.2101C51.549 63.0967 51.549 62.9736 51.5102 62.8601C50.6602 60.8601 52.0401 59.3201 52.4501 57.5801C53.0932 54.4615 53.5374 51.305 53.7801 48.13C53.9401 46.55 53.8801 44.9401 53.9601 43.3501C53.9601 42.5601 53.7502 42.1401 52.8802 42.1901C51.3644 42.136 49.8558 41.9553 48.3701 41.65C47.7091 41.5639 47.0866 41.2902 46.5762 40.8613C46.0658 40.4325 45.6889 39.8664 45.4901 39.2301C44.6601 37.1101 43.1201 35.46 42.0501 33.5C41.2476 32.1625 40.8066 30.6395 40.7702 29.0801C40.7702 27.7801 40.3801 26.5001 40.4601 25.1801C40.4506 24.9793 40.3849 24.7851 40.2702 24.62C38.8202 22.38 38.7401 18.7901 40.9801 17.2401C44.2801 14.9701 45.8401 11.35 48.6901 8.78005C51.7523 5.92265 55.3107 3.6487 59.1901 2.07008C60.3001 1.63008 61.4402 1.23012 62.5102 0.730119C64.5902 -0.269881 66.7402 0.0701136 68.8802 0.100114C69.1199 0.0728843 69.3614 0.133185 69.5601 0.270035C71.0901 2.00004 73.6402 1.89003 75.2702 3.51003C76.5902 4.82003 78.1901 5.89009 79.2101 7.45009C81.3656 10.7579 83.0991 14.3222 84.3701 18.0601C85.4401 21.1501 86.6901 24.2101 87.0801 27.4501C87.5601 31.3601 88.3101 35.23 88.9301 39.12C89.4401 42.35 89.8601 45.5801 90.3301 48.8001C91.2001 54.6601 91.7701 60.6001 93.3301 66.3401C94.1901 69.5901 94.6401 72.8801 95.1801 76.1801C95.5301 78.3101 96.7101 80.11 97.6201 82.01C99.4001 82.37 99.2001 83.78 99.4701 85.12C99.8827 86.4576 100.537 87.7083 101.4 88.8101C101.61 89.1117 101.76 89.4513 101.84 89.8101C101.891 90.0866 101.839 90.3723 101.694 90.6132C101.549 90.854 101.32 91.0332 101.052 91.117C100.783 91.2007 100.493 91.1832 100.237 91.0676C99.9805 90.9521 99.7752 90.7467 99.6601 90.4901C99.5201 90.1801 99.5602 89.7701 99.1502 89.4901C98.9257 90.2472 98.9257 91.053 99.1502 91.8101C100.096 95.4779 100.765 99.2118 101.15 102.98C101.35 104.68 101.61 106.37 101.83 108.07C101.95 109.07 102.33 108.77 102.83 108.32C105.71 105.56 108.4 102.63 111.09 99.6801C116.03 94.2901 120.09 88.2101 124.92 82.6801C126.46 80.9201 127.78 78.9601 129.17 77.0701C129.63 76.4601 130.17 75.92 130.92 76C131.67 76.08 131.85 76.85 132.02 77.51C132.308 78.5637 132.234 79.6834 131.81 80.6901C131.41 81.6201 131.38 82.6901 131.02 83.5701C130.971 83.7229 130.971 83.8872 131.02 84.0401C132.31 87.3001 130.78 90.33 130.15 93.39C128.976 98.6492 127.401 103.811 125.44 108.83C124.28 112.255 122.887 115.596 121.27 118.83C118.66 123.68 116.17 128.62 112.27 132.59C109.568 135.367 106.689 137.966 103.65 140.37C101.543 141.957 99.9415 144.121 99.0401 146.6C98.6057 147.848 97.886 148.977 96.938 149.897C95.9901 150.817 94.8402 151.503 93.5801 151.9C93.4301 151.96 93.2402 152.07 93.1302 152.02C91.8102 151.45 91.7402 152.55 91.5002 153.29C89.7813 158.6 87.7237 163.794 85.3401 168.84C83.2501 173.19 81.0101 177.47 78.9701 181.84C78.5801 182.7 77.9701 183.41 77.5801 184.32C77.5368 184.457 77.4618 184.583 77.3612 184.686C77.2607 184.789 77.1374 184.867 77.0013 184.913C76.8651 184.96 76.7198 184.974 76.5772 184.954C76.4346 184.935 76.2985 184.882 76.1801 184.8C75.5972 184.557 74.9497 184.514 74.3401 184.68C70.1936 185.138 66.0002 184.471 62.2001 182.75C59.2775 181.366 56.4775 179.737 53.8301 177.88C53.2168 177.43 52.7113 176.849 52.3501 176.18C52.2085 175.96 52.1585 175.694 52.2108 175.438C52.2632 175.182 52.4137 174.957 52.6302 174.81C52.8337 174.643 53.0947 174.563 53.3568 174.588C53.6189 174.612 53.8608 174.739 54.0301 174.94C57.8663 178.582 62.6183 181.115 67.7801 182.27C69.9961 182.84 72.3152 182.881 74.5501 182.39C75.5501 182.15 75.7201 181.77 75.3501 180.76C74.8857 179.532 74.1581 178.42 73.2183 177.502C72.2785 176.585 71.1493 175.885 69.9101 175.45C65.5693 173.742 60.9863 172.73 56.3301 172.45C55.8967 172.363 55.4464 172.432 55.0597 172.646C54.6731 172.861 54.3754 173.206 54.2201 173.62C53.9501 174.24 53.4601 174.62 52.7801 174.23C52.1001 173.84 52.0702 173.23 52.4002 172.6C53.6097 170.54 54.9456 168.556 56.4002 166.66C57.6711 164.675 58.8393 162.625 59.9002 160.52C60.4402 159.46 61.0602 158.44 61.6302 157.39C61.7602 157.16 62.0401 156.93 61.8601 156.63C61.6801 156.33 61.3501 156.56 61.0901 156.56C59.1836 156.723 57.2917 157.028 55.4301 157.47C55.12 157.536 54.8061 157.583 54.4901 157.61C53.8101 157.61 53.2501 157.4 53.1701 156.67C53.0901 155.94 53.5802 155.67 54.2602 155.52C56.9354 154.87 59.6516 154.402 62.3902 154.12C63.7002 153.97 63.7201 152.84 64.0801 152.06C65.2901 149.51 66.4301 146.92 67.4501 144.29C68.1675 142.872 68.776 141.401 69.2702 139.89C69.3831 139.52 69.574 139.179 69.8301 138.89C69.9775 138.693 70.1894 138.554 70.4289 138.498C70.6683 138.441 70.9201 138.47 71.1402 138.58C71.3656 138.676 71.5482 138.851 71.6532 139.072C71.7583 139.293 71.7785 139.545 71.7101 139.78C71.5618 140.44 71.3474 141.083 71.0701 141.7C69.3701 145.48 67.7201 149.28 66.0701 153.06C65.9973 153.197 65.9678 153.352 65.9856 153.506C66.0035 153.659 66.0679 153.804 66.1701 153.92C66.2986 154.044 66.3917 154.2 66.4396 154.372C66.4875 154.544 66.4886 154.725 66.4427 154.898C66.3967 155.07 66.3055 155.227 66.1785 155.352C66.0514 155.478 65.8932 155.567 65.7201 155.61C64.9756 155.987 64.3954 156.624 64.0901 157.4C61.8201 161.51 59.8601 165.79 57.0901 169.61C56.98 169.795 56.8798 169.985 56.7901 170.18C57.996 170.274 59.193 170.462 60.3701 170.74C64.2555 171.198 68.0487 172.243 71.6201 173.84C73.9197 174.839 75.8003 176.607 76.9401 178.84C77.1201 179.18 77.3401 179.51 77.6201 179.99C79.2101 176.83 80.7201 173.8 82.2401 170.78C85.6171 163.78 88.4651 156.536 90.7602 149.11C91.4881 147.035 91.8534 144.849 91.8401 142.65C91.8401 141.81 92.0002 141.02 93.0002 141.05C94.0002 141.08 94.0001 141.9 94.0601 142.65C93.9815 145.197 93.4744 147.712 92.5601 150.09ZM104.34 136.73C107.18 134.364 109.853 131.805 112.34 129.07C115.48 125.49 117.47 121.21 119.73 117.07C121.075 114.396 122.198 111.617 123.09 108.76C123.96 106.29 124.91 103.85 125.67 101.33C126.19 99.5801 126.75 97.8401 127.16 96.0501C127.57 94.2601 128.81 92.7701 127.5 90.9901C127.449 90.8376 127.449 90.6725 127.5 90.52C127.587 89.3682 127.744 88.2228 127.97 87.0901C128.53 84.9301 128.97 82.7601 129.61 80.3301C129.259 80.6449 128.925 80.9787 128.61 81.3301C127.79 82.4101 127.04 83.5301 126.19 84.5801C124.63 86.5001 122.93 88.3 121.46 90.28C116.373 97.1841 110.72 103.653 104.56 109.62C104.14 110.163 103.541 110.539 102.87 110.68C102.34 110.68 102.33 110.93 102.4 111.35C102.8 114.14 103.18 116.95 103.59 119.74C104.13 123.45 104.88 127.13 104.79 130.91C104.757 132.857 104.607 134.801 104.34 136.73V136.73ZM47.6801 19.3201C46.6201 18.1301 45.2702 18.2501 43.9002 18.5401C43.2355 18.6892 42.6375 19.051 42.1972 19.5708C41.7568 20.0906 41.498 20.7399 41.4601 21.4201C41.4126 21.6569 41.4459 21.9029 41.5547 22.1187C41.6635 22.3344 41.8414 22.5075 42.0601 22.6101C42.31 22.809 42.6074 22.9393 42.923 22.9884C43.2386 23.0375 43.5616 23.0036 43.8601 22.89C44.4801 22.61 44.1101 22.1201 44.1201 21.7401C44.123 21.1072 44.1968 20.4766 44.3401 19.8601C44.6501 18.7301 45.5902 18.31 46.5202 19.01C46.8445 19.2516 47.2479 19.3624 47.6502 19.3201H47.6801Z" fill="white"/>
<path d="M66.9199 15.38C67.718 15.3099 68.5219 15.417 69.2739 15.6936C70.0259 15.9702 70.7075 16.4095 71.27 16.9801C72.2726 17.9584 72.8901 19.2644 73.01 20.66C73.18 21.89 72.28 22.7201 70.9 22.9401C70.572 23.0138 70.2358 23.044 69.9 23.03C67.66 22.77 66.3399 24.58 64.5799 25.39C62.3899 26.39 61.2699 25.6401 60.2099 23.5701C59.0099 21.2201 59.6799 19.3501 60.9499 17.5701C62.2199 15.7901 64.5299 15.3 66.9199 15.38ZM66.5499 17.5701C65.9908 17.5811 65.4331 17.6279 64.88 17.7101C64.2437 17.7997 63.6467 18.0709 63.1607 18.4913C62.6747 18.9117 62.3203 19.4633 62.14 20.0801C61.9 21.0801 62.51 22.2 62.62 23.3C62.62 23.71 63.2099 23.7 63.4899 23.42C63.7699 23.14 64.8399 23.2801 64.5499 22.4901C64.3399 21.8901 64.28 21.26 64.02 20.68C63.59 19.68 63.9299 19.11 64.9599 19.01C65.6313 18.9293 66.2821 18.7259 66.88 18.41C67.1506 18.2379 67.4616 18.1401 67.7821 18.1261C68.1025 18.1121 68.421 18.1826 68.7056 18.3304C68.9902 18.4783 69.2309 18.6984 69.4036 18.9686C69.5764 19.2388 69.6751 19.5496 69.6899 19.87C69.7399 20.15 69.5299 20.57 69.9899 20.66C70.0862 20.6756 70.1847 20.6693 70.2782 20.6416C70.3716 20.6139 70.4576 20.5654 70.5299 20.5C70.5947 20.3535 70.6178 20.192 70.5966 20.0332C70.5755 19.8744 70.5108 19.7245 70.4099 19.6001C70.0682 18.8934 69.5089 18.3148 68.8142 17.9495C68.1194 17.5841 67.3258 17.4511 66.5499 17.5701V17.5701Z" fill="white"/>
<path d="M8.16999 78.63C6.9918 78.5723 5.83897 78.2674 4.78632 77.735C3.73368 77.2027 2.80478 76.4548 2.06 75.5401C1.29795 74.7221 0.667152 73.7911 0.190007 72.7801C-0.099993 72.1301 -0.0999979 71.6001 0.560002 71.2401C1.22 70.8801 1.70998 71.1801 2.03998 71.7801C2.91227 73.4458 4.21828 74.8452 5.82001 75.8301C6.5947 76.2496 7.47029 76.4468 8.35004 76.4001C9.23004 76.4001 10.35 76.3101 10.35 77.5501C10.35 78.7901 9.17004 78.55 8.35004 78.63H8.16999Z" fill="white"/>
<path d="M37.0501 46.39C37.0501 47.05 36.8801 47.5801 36.2001 47.7101C36.0746 47.7507 35.942 47.7642 35.8109 47.7496C35.6799 47.7351 35.5534 47.6928 35.44 47.6257C35.3265 47.5586 35.2286 47.4681 35.1527 47.3602C35.0769 47.2523 35.0249 47.1295 35.0001 47C34.1205 43.9725 32.7047 41.1275 30.8201 38.6001C30.4001 38.0001 30.2202 37.39 30.9002 36.93C31.0418 36.831 31.2029 36.7635 31.3728 36.732C31.5427 36.7006 31.7174 36.7058 31.8851 36.7475C32.0528 36.7892 32.2097 36.8664 32.3451 36.9737C32.4805 37.0811 32.5913 37.2162 32.6701 37.37C34.3993 39.8393 35.7884 42.5302 36.8001 45.37C36.9101 45.74 36.9801 46.1 37.0501 46.39Z" fill="white"/>
</g>
<defs>
<clipPath id="clip0_406_2">
<rect width="132.14" height="184.97" fill="white"/>
</clipPath>
</defs>
</svg>
