<svg width="43" height="50" viewBox="0 0 43 50" fill="none" xmlns="http://www.w3.org/2000/svg">
<path fill-rule="evenodd" clip-rule="evenodd" d="M12.0273 36.2005C12.389 36.2005 12.6759 36.0009 12.6759 35.7515C12.6759 35.4647 12.3516 35.2651 11.9774 35.3025C11.6157 35.3025 11.3288 35.5021 11.3288 35.7515C11.3288 36.0384 11.6157 36.2379 12.0273 36.2005ZM9.33294 35.8014C8.95873 35.7266 8.70925 35.4397 8.79656 35.1903C8.88388 34.9408 9.24562 34.8161 9.56995 34.9034C9.94416 35.0157 10.1812 35.3025 10.1063 35.552C10.0315 35.8014 9.65726 35.9261 9.33294 35.8014ZM13.7362 35.5894C13.6988 35.3025 13.9483 35.0656 14.31 34.9783C14.6718 34.9408 15.0086 35.103 15.046 35.3399C15.0834 35.5894 14.8339 35.8263 14.4722 35.9136C14.098 36.0009 13.7736 35.8388 13.7362 35.5894ZM13.1446 47.5113C14.6807 47.7489 15.283 46.7376 15.283 45.941C15.283 45.6687 15.2784 44.9637 15.2723 44.05C15.2613 42.3684 15.2456 39.9803 15.2456 38.2833C15.2456 38.2833 6.51384 40.154 4.68018 34.5667C4.68018 34.5667 3.25815 30.9374 1.21243 30.002C1.21243 30.002 -1.64409 28.0439 1.41202 28.0814C1.41202 28.0814 4.51802 28.3308 6.22694 31.2991C8.95873 36.1132 13.5366 34.7288 15.3204 33.9057C15.6073 31.9102 16.4181 30.5258 17.3162 29.7027C10.3433 28.9294 3.30805 27.9192 3.30805 15.9214C3.30805 12.4916 4.25607 10.7705 6.25189 8.57547C5.92757 7.76481 4.86729 4.42237 6.57621 0.107129C9.18326 -0.703537 15.1832 3.47452 15.1832 3.47452C17.678 2.77609 20.3599 2.41441 23.0168 2.41441C25.6738 2.41441 28.3556 2.77609 30.8504 3.47452C30.8504 3.47452 36.8504 -0.716009 39.4574 0.107129C41.1663 4.43484 40.1061 7.76481 39.7817 8.57547C41.7776 10.783 43 12.5041 43 15.9214C43 27.9566 35.6529 28.917 28.68 29.7027C29.8276 30.688 30.8005 32.5587 30.8005 35.4896C30.8005 38.3042 30.7837 41.5663 30.7727 43.7214C30.7672 44.7845 30.7631 45.5782 30.7631 45.916C30.7631 46.7203 31.3279 47.6964 32.8837 47.4317C29.7045 48.4978 26.2693 49.0697 22.655 49.0569C19.3349 49.0569 16.1383 48.5122 13.1446 47.5113ZM4.1937 30.8501C3.98164 30.6131 3.94422 30.3263 4.10638 30.2016C4.26854 30.0394 4.55544 30.1267 4.75502 30.3263C4.96708 30.5632 5.0045 30.8501 4.84234 30.9748C4.68018 31.1369 4.39328 31.0496 4.1937 30.8501ZM3.0461 29.6777C2.79662 29.553 2.67188 29.3535 2.7592 29.1913C2.84651 29.0666 3.0461 29.0292 3.29557 29.104C3.54505 29.2288 3.66979 29.4283 3.58248 29.5904C3.49516 29.765 3.24568 29.8025 3.0461 29.6777ZM6.9629 34.4046C6.676 34.1676 6.60116 33.7934 6.80074 33.6313C6.9629 33.4318 7.33712 33.4692 7.61154 33.756C7.86102 33.993 7.93587 34.3671 7.77371 34.5293C7.61154 34.7288 7.2498 34.6914 6.9629 34.4046ZM5.37872 32.5338C5.17913 32.2469 5.17913 31.9227 5.37872 31.798C5.5783 31.6358 5.90262 31.7605 6.07726 32.0474C6.27684 32.3342 6.27684 32.6585 6.07726 32.8206C5.91509 32.9454 5.5783 32.8206 5.37872 32.5338Z" fill="white"/>
</svg>
