<svg width="100" height="100" viewBox="0 0 100 100" fill="none" xmlns="http://www.w3.org/2000/svg">
<path opacity="0.3" fill-rule="evenodd" clip-rule="evenodd" d="M46.0265 33.5758L54.8993 25.2551C55.0287 25.1333 55.1939 25.0504 55.3737 25.0168C55.5535 24.9831 55.7399 25.0003 55.9092 25.0662C56.0786 25.132 56.2233 25.2435 56.325 25.3866C56.4267 25.5296 56.4808 25.6978 56.4805 25.8697V42.5111C56.4808 42.6831 56.4267 42.8512 56.325 42.9943C56.2233 43.1373 56.0786 43.2489 55.9092 43.3147C55.7399 43.3805 55.5535 43.3977 55.3737 43.3641C55.1939 43.3305 55.0287 43.2475 54.8993 43.1258L46.0265 34.8051C45.9403 34.7245 45.8719 34.6287 45.8252 34.5232C45.7786 34.4177 45.7545 34.3046 45.7545 34.1904C45.7545 34.0762 45.7786 33.9632 45.8252 33.8577C45.8719 33.7522 45.9403 33.6564 46.0265 33.5758ZM33.3358 31.5859C32.5992 31.5859 31.8928 31.8603 31.3719 32.3487C30.8511 32.8372 30.5584 33.4997 30.5584 34.1904C30.5584 34.8812 30.8511 35.5437 31.3719 36.0321C31.8928 36.5206 32.5992 36.795 33.3358 36.795C34.0724 36.795 34.7788 36.5206 35.2997 36.0321C35.8206 35.5437 36.1132 34.8812 36.1132 34.1904C36.1132 33.4997 35.8206 32.8372 35.2997 32.3487C34.7788 31.8603 34.0724 31.5859 33.3358 31.5859ZM25.0037 34.1904C25.0042 32.758 25.4245 31.3533 26.2187 30.1298C27.013 28.9063 28.1506 27.911 29.5072 27.2529C30.8639 26.5947 32.3873 26.2989 33.9111 26.3978C35.4349 26.4967 36.9004 26.9865 38.1474 27.8136C39.3944 28.6408 40.3749 29.7735 40.9819 31.088C41.5888 32.4024 41.7988 33.8481 41.5888 35.2669C41.3789 36.6857 40.757 38.023 39.7914 39.1328C38.8257 40.2426 37.5533 41.0821 36.1132 41.5596V59.8124C37.9673 60.4268 39.5301 61.6362 40.5253 63.2267C41.5205 64.8173 41.8841 66.6865 41.5517 68.5041C41.2193 70.3217 40.2124 71.9706 38.7089 73.1593C37.2055 74.348 35.3023 75 33.3358 75C31.3693 75 29.4661 74.348 27.9627 73.1593C26.4592 71.9706 25.4523 70.3217 25.12 68.5041C24.7876 66.6865 25.1511 64.8173 26.1463 63.2267C27.1415 61.6362 28.7043 60.4268 30.5584 59.8124V41.5596C28.9336 41.0209 27.5268 40.0229 26.532 38.7031C25.5371 37.3833 25.0032 35.8067 25.0037 34.1904ZM60.1837 31.5859H56.4805V36.795H60.1837C61.1658 36.795 62.1077 37.1609 62.8022 37.8121C63.4967 38.4634 63.8868 39.3467 63.8868 40.2677V59.8124C62.0327 60.4268 60.4699 61.6362 59.4747 63.2267C58.4795 64.8173 58.1159 66.6865 58.4483 68.5041C58.7807 70.3217 59.7876 71.9706 61.2911 73.1593C62.7945 74.348 64.6977 75 66.6642 75C68.6307 75 70.5339 74.348 72.0373 73.1593C73.5407 71.9706 74.5477 70.3217 74.88 68.5041C75.2124 66.6865 74.8489 64.8173 73.8537 63.2267C72.8585 61.6362 71.2957 60.4268 69.4415 59.8124V40.2677C69.4415 37.9652 68.4662 35.7569 66.73 34.1287C64.9938 32.5006 62.639 31.5859 60.1837 31.5859ZM63.8868 67.1815C63.8868 66.4908 64.1794 65.8283 64.7003 65.3398C65.2212 64.8514 65.9276 64.577 66.6642 64.577C67.4008 64.577 68.1072 64.8514 68.6281 65.3398C69.1489 65.8283 69.4415 66.4908 69.4415 67.1815C69.4415 67.8723 69.1489 68.5348 68.6281 69.0232C68.1072 69.5117 67.4008 69.7861 66.6642 69.7861C65.9276 69.7861 65.2212 69.5117 64.7003 69.0232C64.1794 68.5348 63.8868 67.8723 63.8868 67.1815ZM33.3358 64.577C32.5992 64.577 31.8928 64.8514 31.3719 65.3398C30.8511 65.8283 30.5584 66.4908 30.5584 67.1815C30.5584 67.8723 30.8511 68.5348 31.3719 69.0232C31.8928 69.5117 32.5992 69.7861 33.3358 69.7861C34.0724 69.7861 34.7788 69.5117 35.2997 69.0232C35.8206 68.5348 36.1132 67.8723 36.1132 67.1815C36.1132 66.4908 35.8206 65.8283 35.2997 65.3398C34.7788 64.8514 34.0724 64.577 33.3358 64.577Z" fill="#2998B8"/>
</svg>
