<svg width="127" height="127" viewBox="0 0 127 127" fill="none" xmlns="http://www.w3.org/2000/svg">
<path d="M27.2008 79.9998C27.2008 87.2998 21.3008 93.1998 14.0008 93.1998C6.70078 93.1998 0.800781 87.2998 0.800781 79.9998C0.800781 72.6998 6.70078 66.7998 14.0008 66.7998H27.2008V79.9998ZM33.8008 79.9998C33.8008 72.6998 39.7008 66.7998 47.0008 66.7998C54.3008 66.7998 60.2008 72.6998 60.2008 79.9998V113C60.2008 120.3 54.3008 126.2 47.0008 126.2C39.7008 126.2 33.8008 120.3 33.8008 113V79.9998Z" fill="white"/>
<path d="M46.9992 26.9996C39.6992 26.9996 33.7992 21.0996 33.7992 13.7996C33.7992 6.49961 39.6992 0.599609 46.9992 0.599609C54.2992 0.599609 60.1992 6.49961 60.1992 13.7996V26.9996H46.9992ZM46.9992 33.6996C54.2992 33.6996 60.1992 39.5996 60.1992 46.8996C60.1992 54.1996 54.2992 60.0996 46.9992 60.0996H13.8992C6.59922 60.0996 0.699219 54.1996 0.699219 46.8996C0.699219 39.5996 6.59922 33.6996 13.8992 33.6996H46.9992Z" fill="white"/>
<path d="M99.9004 46.8996C99.9004 39.5996 105.8 33.6996 113.1 33.6996C120.4 33.6996 126.3 39.5996 126.3 46.8996C126.3 54.1996 120.4 60.0996 113.1 60.0996H99.9004V46.8996ZM93.3004 46.8996C93.3004 54.1996 87.4004 60.0996 80.1004 60.0996C72.8004 60.0996 66.9004 54.1996 66.9004 46.8996V13.7996C66.9004 6.49961 72.8004 0.599609 80.1004 0.599609C87.4004 0.599609 93.3004 6.49961 93.3004 13.7996V46.8996V46.8996Z" fill="white"/>
<path d="M80.1004 99.7998C87.4004 99.7998 93.3004 105.7 93.3004 113C93.3004 120.3 87.4004 126.2 80.1004 126.2C72.8004 126.2 66.9004 120.3 66.9004 113V99.7998H80.1004ZM80.1004 93.1998C72.8004 93.1998 66.9004 87.2998 66.9004 79.9998C66.9004 72.6998 72.8004 66.7998 80.1004 66.7998H113.2C120.5 66.7998 126.4 72.6998 126.4 79.9998C126.4 87.2998 120.5 93.1998 113.2 93.1998H80.1004Z" fill="white"/>
</svg>
